<svg width="23.000000" height="23.000000" viewBox="0 0 23 23" fill="white" xmlns="http://www.w3.org/2000/svg" xmlns:xlink="http://www.w3.org/1999/xlink">
	<desc>
			Created with Pixso.
	</desc>
	<defs>
		<clipPath id="clip2_66">
			<rect id="phone-call 1" rx="-0.500000" width="22.000000" height="22.000000" transform="translate(0.500000 0.500000)" fill="white" fill-opacity="0"/>
		</clipPath>
	</defs>
	<rect id="phone-call 1" rx="-0.500000" width="22.000000" height="22.000000" transform="translate(0.500000 0.500000)" fill="#FFFFFF" fill-opacity="0"/>
	<g clip-path="url(#clip2_66)">
		<path id="Vector" d="M18.17 14.24C17.7 13.75 17.13 13.49 16.53 13.49C15.93 13.49 15.36 13.75 14.87 14.24L13.34 15.77C13.21 15.7 13.08 15.64 12.96 15.57C12.79 15.49 12.62 15.4 12.48 15.32C11.05 14.4 9.74 13.21 8.49 11.68C7.88 10.91 7.47 10.26 7.18 9.61C7.58 9.24 7.94 8.86 8.3 8.5C8.44 8.36 8.58 8.22 8.71 8.09C9.73 7.07 9.73 5.75 8.71 4.73L7.39 3.4C7.24 3.25 7.08 3.1 6.93 2.94C6.64 2.64 6.34 2.33 6.02 2.04C5.55 1.57 4.99 1.33 4.4 1.33C3.8 1.33 3.23 1.57 2.75 2.04C2.74 2.04 2.74 2.04 2.74 2.05L1.09 3.71C0.46 4.34 0.11 5.09 0.03 5.97C-0.08 7.39 0.33 8.71 0.65 9.57C1.44 11.69 2.61 13.66 4.37 15.77C6.49 18.31 9.05 20.31 11.97 21.72C13.09 22.25 14.58 22.88 16.25 22.99C16.35 22.99 16.45 23 16.55 23C17.67 23 18.61 22.59 19.35 21.79C19.36 21.78 19.37 21.78 19.37 21.77C19.62 21.46 19.91 21.18 20.22 20.89C20.43 20.69 20.64 20.48 20.85 20.26C21.33 19.76 21.58 19.18 21.58 18.58C21.58 17.98 21.33 17.4 20.84 16.92L18.17 14.24ZM19.91 19.35C19.72 19.56 19.53 19.74 19.32 19.95C19 20.25 18.68 20.56 18.38 20.92C17.89 21.44 17.31 21.69 16.56 21.69C16.48 21.69 16.41 21.69 16.33 21.68C14.89 21.59 13.55 21.03 12.55 20.55C9.8 19.22 7.39 17.33 5.38 14.94C3.73 12.94 2.62 11.1 1.89 9.12C1.43 7.91 1.27 6.97 1.34 6.08C1.39 5.51 1.61 5.04 2.01 4.64L3.67 2.98C3.91 2.76 4.16 2.64 4.41 2.64C4.71 2.64 4.96 2.82 5.11 2.98C5.12 2.98 5.12 2.99 5.13 2.99C5.42 3.27 5.71 3.55 6 3.86C6.15 4.02 6.31 4.17 6.46 4.33L7.79 5.66C8.3 6.17 8.3 6.65 7.79 7.16C7.65 7.3 7.51 7.44 7.37 7.58C6.96 8 6.58 8.38 6.15 8.76C6.14 8.77 6.13 8.78 6.13 8.79C5.71 9.2 5.79 9.61 5.88 9.89C5.88 9.9 5.89 9.92 5.89 9.93C6.24 10.77 6.72 11.55 7.46 12.49L7.46 12.5C8.8 14.15 10.22 15.43 11.77 16.42C11.97 16.54 12.18 16.65 12.37 16.74C12.55 16.83 12.71 16.91 12.85 17C12.87 17.01 12.89 17.02 12.91 17.03C13.08 17.12 13.23 17.16 13.39 17.16C13.79 17.16 14.05 16.9 14.13 16.82L15.79 15.16C15.95 15 16.22 14.8 16.52 14.8C16.82 14.8 17.07 14.99 17.22 15.15C17.23 15.16 17.23 15.16 17.23 15.16L19.91 17.83C20.41 18.33 20.41 18.84 19.91 19.35Z" fill="#000000" fill-opacity="1.000000" fill-rule="nonzero"/>
		<path id="Vector" d="M12.42 5.47C13.7 5.68 14.85 6.28 15.77 7.2C16.7 8.13 17.29 9.28 17.51 10.55C17.57 10.87 17.84 11.1 18.16 11.1C18.2 11.1 18.23 11.09 18.27 11.09C18.63 11.03 18.87 10.69 18.81 10.33C18.55 8.79 17.82 7.39 16.71 6.28C15.59 5.16 14.19 4.44 12.65 4.17C12.29 4.12 11.96 4.35 11.9 4.71C11.83 5.06 12.07 5.41 12.42 5.47Z" fill="#000000" fill-opacity="1.000000" fill-rule="nonzero"/>
		<path id="Vector" d="M22.97 10.14C22.54 7.61 21.34 5.3 19.51 3.47C17.67 1.63 15.37 0.44 12.83 0C12.48 -0.06 12.14 0.18 12.08 0.54C12.02 0.9 12.26 1.23 12.62 1.3C14.88 1.68 16.94 2.75 18.58 4.39C20.23 6.03 21.29 8.09 21.68 10.35C21.73 10.67 22.01 10.9 22.32 10.9C22.36 10.9 22.4 10.89 22.43 10.89C22.79 10.83 23.03 10.5 22.97 10.14Z" fill="#000000" fill-opacity="1.000000" fill-rule="nonzero"/>
	</g>
</svg>
